<?xml version="1.0" encoding="utf-8"?>
<!-- Generator: Adobe Illustrator 25.1.0, SVG Export Plug-In . SVG Version: 6.00 Build 0)  -->
<svg version="1.1" id="Layer_1" xmlns="http://www.w3.org/2000/svg" xmlns:xlink="http://www.w3.org/1999/xlink" x="0px" y="0px"
	 viewBox="0 0 1366 768" style="enable-background:new 0 0 1366 768;" xml:space="preserve">
<style type="text/css">
	.st0{fill:#603813;stroke:#603813;stroke-miterlimit:10;}
	.st1{fill:none;stroke:#7AC943;stroke-miterlimit:10;}
</style>
<path class="st0" d="M437.48,340.04c0,1.97-0.2,3.82-0.61,5.54c-0.41,1.73-1.08,3.24-2.02,4.54c-0.94,1.3-2.17,2.32-3.71,3.06
	c-1.54,0.74-3.41,1.12-5.62,1.12c-1.54,0-2.95-0.18-4.25-0.54c-1.3-0.36-2.42-0.89-3.38-1.58c-0.96-0.7-1.72-1.52-2.27-2.48
	c-0.55-0.96-0.83-2.04-0.83-3.24c0-1.44,0.41-2.6,1.22-3.49c0.82-0.89,2.02-1.33,3.6-1.33c0.72,0,1.32,0.12,1.8,0.36
	c0.48,0.24,0.85,0.52,1.12,0.83c0.26,0.31,0.46,0.66,0.58,1.04c0.12,0.38,0.18,0.72,0.18,1.01c0,0.53-0.07,0.98-0.22,1.37
	c-0.14,0.38-0.29,0.77-0.43,1.15c-0.14,0.38-0.29,0.79-0.43,1.22s-0.22,0.98-0.22,1.66c0,1.1,0.32,1.88,0.97,2.34
	c0.65,0.46,1.52,0.68,2.63,0.68c1.39,0,2.52-0.52,3.38-1.55c0.86-1.03,1.3-2.84,1.3-5.44v-43.34h-7.99v-1.01h23.18v1.01h-7.99
	V340.04z"/>
<path class="st0" d="M467.72,336.59h-16.56v-1.3h16.56v-16.63h1.44v16.63h16.56v1.3h-16.56v16.63h-1.44V336.59z"/>
<path class="st0" d="M491.99,352.21h7.99v-49.25h-7.99v-1.01h13.39c0.67,0,1.34-0.01,2.02-0.04c0.67-0.02,1.34-0.06,2.02-0.11
	c0.67,0,1.34-0.01,2.02-0.04c0.67-0.02,1.34-0.04,2.02-0.04c1.44,0,2.72,0.02,3.85,0.07c1.13,0.05,2.18,0.13,3.17,0.25
	c0.98,0.12,1.92,0.29,2.81,0.5c0.89,0.22,1.84,0.49,2.84,0.83c2.93,0.96,5.46,2.24,7.6,3.85c2.14,1.61,3.89,3.47,5.26,5.58
	c1.37,2.11,2.38,4.42,3.02,6.91c0.65,2.5,0.97,5.11,0.97,7.85c0,3.17-0.38,6.01-1.15,8.53c-0.77,2.52-1.82,4.75-3.17,6.7
	c-1.34,1.94-2.92,3.62-4.72,5.04c-1.8,1.42-3.73,2.56-5.8,3.42c-1.15,0.53-2.24,0.94-3.28,1.22c-1.03,0.29-2.09,0.5-3.17,0.65
	c-1.08,0.14-2.27,0.24-3.56,0.29c-1.3,0.05-2.78,0.07-4.46,0.07c-0.72,0-1.49-0.01-2.3-0.04c-0.82-0.02-1.63-0.06-2.45-0.11
	c-0.82-0.05-1.62-0.08-2.41-0.11c-0.79-0.02-1.55-0.04-2.27-0.04h-12.24V352.21z M507.18,352.21c0.82,0.1,1.76,0.17,2.84,0.22
	c1.08,0.05,2.27,0.07,3.56,0.07c1.63,0,3.25-0.08,4.86-0.25c1.61-0.17,3.14-0.53,4.61-1.08c1.46-0.55,2.83-1.34,4.1-2.38
	c1.27-1.03,2.41-2.39,3.42-4.07c1.54-2.59,2.6-5.24,3.2-7.96c0.6-2.71,0.9-5.68,0.9-8.89c0-3.79-0.36-7.24-1.08-10.33
	c-0.72-3.1-1.91-5.74-3.56-7.92c-1.66-2.18-3.85-3.88-6.59-5.08c-2.74-1.2-6.12-1.8-10.15-1.8c-1.2,0-2.29,0.02-3.28,0.07
	c-0.98,0.05-1.93,0.1-2.84,0.14V352.21z"/>
<path class="st0" d="M575.07,352.21h7.99v-49.25h-4.18c-0.96,0-2.04,0.08-3.24,0.25c-1.2,0.17-2.41,0.64-3.64,1.4
	c-1.22,0.77-2.4,1.98-3.53,3.64c-1.13,1.66-2.1,3.95-2.92,6.88h-0.79v-13.18h43.78v13.18h-0.79c-0.82-2.93-1.79-5.22-2.92-6.88
	c-1.13-1.66-2.3-2.87-3.53-3.64c-1.22-0.77-2.44-1.24-3.64-1.4c-1.2-0.17-2.28-0.25-3.24-0.25h-4.18v49.25h7.99v1.01h-23.18V352.21z
	"/>
<path class="st0" d="M605.53,337.81c0-2.35,0.52-4.54,1.55-6.55c1.03-2.02,2.35-3.76,3.96-5.22c1.61-1.46,3.41-2.6,5.4-3.42
	c1.99-0.82,3.95-1.22,5.87-1.22c1.92,0,3.88,0.41,5.87,1.22c1.99,0.82,3.79,1.96,5.4,3.42c1.61,1.46,2.93,3.2,3.96,5.22
	c1.03,2.02,1.55,4.2,1.55,6.55c0,2.26-0.48,4.38-1.44,6.37c-0.96,1.99-2.22,3.73-3.78,5.22c-1.56,1.49-3.35,2.66-5.36,3.53
	c-2.02,0.86-4.08,1.3-6.19,1.3c-2.11,0-4.18-0.43-6.19-1.3c-2.02-0.86-3.81-2.04-5.36-3.53c-1.56-1.49-2.82-3.23-3.78-5.22
	C606.01,342.19,605.53,340.07,605.53,337.81z M612.73,337.81c0,3.41,0.26,6.12,0.79,8.14c0.53,2.02,1.22,3.56,2.09,4.64
	c0.86,1.08,1.87,1.79,3.02,2.12c1.15,0.34,2.38,0.5,3.67,0.5s2.52-0.17,3.67-0.5c1.15-0.34,2.16-1.04,3.02-2.12
	c0.86-1.08,1.56-2.63,2.09-4.64c0.53-2.02,0.79-4.73,0.79-8.14c0-2.88-0.19-5.29-0.58-7.24c-0.38-1.94-0.97-3.53-1.76-4.75
	s-1.79-2.1-2.99-2.63c-1.2-0.53-2.62-0.79-4.25-0.79c-1.63,0-3.05,0.26-4.25,0.79c-1.2,0.53-2.2,1.4-2.99,2.63s-1.38,2.81-1.76,4.75
	C612.92,332.52,612.73,334.93,612.73,337.81z"/>
<path class="st0" d="M645.56,337.81c0-2.35,0.52-4.54,1.55-6.55c1.03-2.02,2.35-3.76,3.96-5.22c1.61-1.46,3.41-2.6,5.4-3.42
	c1.99-0.82,3.95-1.22,5.87-1.22c1.92,0,3.88,0.41,5.87,1.22c1.99,0.82,3.79,1.96,5.4,3.42c1.61,1.46,2.93,3.2,3.96,5.22
	c1.03,2.02,1.55,4.2,1.55,6.55c0,2.26-0.48,4.38-1.44,6.37c-0.96,1.99-2.22,3.73-3.78,5.22c-1.56,1.49-3.35,2.66-5.36,3.53
	c-2.02,0.86-4.08,1.3-6.19,1.3c-2.11,0-4.18-0.43-6.19-1.3c-2.02-0.86-3.81-2.04-5.36-3.53c-1.56-1.49-2.82-3.23-3.78-5.22
	C646.04,342.19,645.56,340.07,645.56,337.81z M652.76,337.81c0,3.41,0.26,6.12,0.79,8.14c0.53,2.02,1.22,3.56,2.09,4.64
	c0.86,1.08,1.87,1.79,3.02,2.12c1.15,0.34,2.38,0.5,3.67,0.5s2.52-0.17,3.67-0.5c1.15-0.34,2.16-1.04,3.02-2.12
	c0.86-1.08,1.56-2.63,2.09-4.64c0.53-2.02,0.79-4.73,0.79-8.14c0-2.88-0.19-5.29-0.58-7.24c-0.38-1.94-0.97-3.53-1.76-4.75
	s-1.79-2.1-2.99-2.63c-1.2-0.53-2.62-0.79-4.25-0.79c-1.63,0-3.05,0.26-4.25,0.79c-1.2,0.53-2.2,1.4-2.99,2.63s-1.38,2.81-1.76,4.75
	C652.95,332.52,652.76,334.93,652.76,337.81z"/>
<path class="st0" d="M684.37,352.21h5.54v-49.9h-5.54v-1.01h11.74v50.9h5.54v1.01h-17.28V352.21z"/>
<path class="st0" d="M705.68,352.21h5.54v-49.9h-5.54v-1.01h11.74v34.42h0.79l14.33-12.38h-5.11v-1.01h11.16v1.01h-4.32l-11.23,9.65
	l15.91,19.22h3.1v1.01h-16.2v-1.01h5.11l-12.74-15.48h-0.79v15.48h3.96v1.01h-15.7V352.21z"/>
<path class="st0" d="M744.34,352.26h5.54v-27.6h-5.54v-0.96h11.74v28.57h5.54v0.96h-17.28V352.26z M749.02,307.65
	c0-1.01,0.37-1.87,1.12-2.58c0.74-0.71,1.64-1.07,2.7-1.07c1.06,0,1.96,0.36,2.7,1.07c0.74,0.71,1.12,1.57,1.12,2.58
	c0,1.01-0.37,1.87-1.12,2.58c-0.75,0.71-1.64,1.07-2.7,1.07c-1.06,0-1.96-0.35-2.7-1.07C749.4,309.52,749.02,308.66,749.02,307.65z"
	/>
<g>
	<path class="st0" d="M760.37,332.1l4.05-3.44l-6.01-7.08c0.37-0.13,0.71-0.26,1.02-0.39c0.31-0.13,0.76-0.45,1.36-0.96
		c0.53-0.45,0.93-0.9,1.2-1.35c0.28-0.45,0.47-0.98,0.57-1.57l6.38,7.52l7.47-6.33l0.65,0.77l-7.47,6.33l15.23,17.96
		c0.87,1.03,1.67,1.78,2.41,2.25c0.74,0.48,1.41,0.76,2.02,0.84c0.61,0.08,1.15,0.02,1.61-0.18s0.87-0.45,1.22-0.75
		c1.23-1.04,1.82-2.35,1.78-3.92c-0.04-1.57-0.46-3.05-1.28-4.44l0.97-0.35c0.3,0.57,0.59,1.23,0.88,1.99
		c0.29,0.77,0.44,1.6,0.45,2.5c0.01,0.9-0.19,1.83-0.59,2.77c-0.41,0.94-1.14,1.86-2.19,2.75c-2.63,2.23-4.91,3.25-6.85,3.07
		s-3.72-1.25-5.37-3.19l-14.81-17.46l-4.05,3.44L760.37,332.1z"/>
</g>
<ellipse class="st1" cx="599" cy="337.5" rx="198.5" ry="152"/>
</svg>
